<svg width="50" height="50" viewBox="0 0 50 50" fill="none" xmlns="http://www.w3.org/2000/svg">
<rect width="50" height="50" fill="white"/>
<g clip-path="url(#clip0_14_8)">
<path d="M-68.5126 29.3155V34.8135H-71.8114C-74.1623 34.8135 -75.9949 34.2447 -77.3094 33.1072C-78.6239 31.9444 -79.2811 30.0612 -79.2811 27.4575V19.0398H-81.8595V13.6556H-79.2811V8.4988H-72.7972V13.6556H-68.5505V19.0398H-72.7972V27.5333C-72.7972 28.1653 -72.6456 28.6203 -72.3422 28.8984C-72.0389 29.1764 -71.5333 29.3155 -70.8255 29.3155H-68.5126ZM-66.1901 24.1966C-66.1901 22.0227 -65.7857 20.1142 -64.9768 18.4711C-64.1426 16.828 -63.0177 15.5641 -61.6021 14.6793C-60.1865 13.7946 -58.6066 13.3522 -56.8624 13.3522C-55.371 13.3522 -54.0692 13.6556 -52.957 14.2622C-51.8194 14.8689 -50.9473 15.6652 -50.3407 16.651V13.6556H-43.8568V34.8135H-50.3407V31.818C-50.9726 32.8039 -51.8573 33.6001 -52.9949 34.2068C-54.1071 34.8135 -55.4089 35.1168 -56.9004 35.1168C-58.6193 35.1168 -60.1865 34.6744 -61.6021 33.7897C-63.0177 32.8797 -64.1426 31.6031 -64.9768 29.96C-65.7857 28.2917 -66.1901 26.3705 -66.1901 24.1966ZM-50.3407 24.2345C-50.3407 22.6167 -50.7957 21.3402 -51.7057 20.4049C-52.5904 19.4696 -53.6774 19.0019 -54.9666 19.0019C-56.2558 19.0019 -57.3554 19.4696 -58.2654 20.4049C-59.1501 21.3149 -59.5925 22.5788 -59.5925 24.1966C-59.5925 25.8144 -59.1501 27.1036 -58.2654 28.0642C-57.3554 28.9995 -56.2558 29.4671 -54.9666 29.4671C-53.6774 29.4671 -52.5904 28.9995 -51.7057 28.0642C-50.7957 27.1289 -50.3407 25.8523 -50.3407 24.2345ZM-28.5491 19.0398H-32.0375V34.8135H-38.5214V19.0398H-40.8723V13.6556H-38.5214V13.0489C-38.5214 10.4452 -37.7757 8.47352 -36.2843 7.13377C-34.7928 5.76874 -32.6063 5.08623 -29.7245 5.08623C-29.2443 5.08623 -28.8904 5.09887 -28.6629 5.12414V10.6222C-29.9015 10.5463 -30.7736 10.7233 -31.2792 11.153C-31.7847 11.5827 -32.0375 12.3537 -32.0375 13.466V13.6556H-28.5491V19.0398ZM-22.2415 11.4564C-23.379 11.4564 -24.3143 11.1277 -25.0474 10.4705C-25.7552 9.78799 -26.1091 8.9538 -26.1091 7.96795C-26.1091 6.95682 -25.7552 6.12264 -25.0474 5.4654C-24.3143 4.78289 -23.379 4.44163 -22.2415 4.44163C-21.1292 4.44163 -20.2192 4.78289 -19.5114 5.4654C-18.7784 6.12264 -18.4118 6.95682 -18.4118 7.96795C-18.4118 8.9538 -18.7784 9.78799 -19.5114 10.4705C-20.2192 11.1277 -21.1292 11.4564 -22.2415 11.4564ZM-19.0185 13.6556V34.8135H-25.5024V13.6556H-19.0185ZM7.29322 13.6556L-5.97788 44.8616H-12.9547L-8.10125 34.093L-16.7085 13.6556H-9.46628L-4.57493 26.8887L0.278497 13.6556H7.29322ZM38.4062 35.1168C37.2687 35.1168 36.3334 34.7882 35.6003 34.131C34.8925 33.4484 34.5387 32.6143 34.5387 31.6284C34.5387 30.6173 34.8925 29.7705 35.6003 29.0879C36.3334 28.4054 37.2687 28.0642 38.4062 28.0642C39.5185 28.0642 40.4285 28.4054 41.1363 29.0879C41.8694 29.7705 42.2359 30.6173 42.2359 31.6284C42.2359 32.6143 41.8694 33.4484 41.1363 34.131C40.4285 34.7882 39.5185 35.1168 38.4062 35.1168Z" fill="black"/>
<path d="M8.34868 24.1966C8.34868 22.0227 8.75313 20.1142 9.56204 18.4711C10.3962 16.828 11.5211 15.5641 12.9367 14.6793C14.3523 13.7946 15.9322 13.3522 17.6764 13.3522C19.1678 13.3522 20.4696 13.6556 21.5819 14.2622C22.7194 14.8689 23.5915 15.6652 24.1982 16.651V13.6556H30.682V34.8135H24.1982V31.818C23.5662 32.8039 22.6815 33.6001 21.5439 34.2068C20.4317 34.8135 19.1299 35.1168 17.6384 35.1168C15.9195 35.1168 14.3523 34.6744 12.9367 33.7897C11.5211 32.8797 10.3962 31.6031 9.56204 29.96C8.75313 28.2917 8.34868 26.3705 8.34868 24.1966ZM24.1982 24.2345C24.1982 22.6167 23.7432 21.3402 22.8331 20.4049C21.9484 19.4696 20.8614 19.0019 19.5722 19.0019C18.283 19.0019 17.1834 19.4696 16.2734 20.4049C15.3887 21.3149 14.9463 22.5788 14.9463 24.1966C14.9463 25.8144 15.3887 27.1036 16.2734 28.0642C17.1834 28.9995 18.283 29.4671 19.5722 29.4671C20.8614 29.4671 21.9484 28.9995 22.8331 28.0642C23.7432 27.1289 24.1982 25.8523 24.1982 24.2345Z" fill="#F1A501"/>
<ellipse cx="19.6576" cy="24" rx="3.61291" ry="3.70648" fill="black"/>
</g>
<defs>
<clipPath id="clip0_14_8">
<rect width="35" height="24" fill="white" transform="translate(7.5 13)"/>
</clipPath>
</defs>
</svg>
