<svg width="126" height="41" viewBox="0 0 126 41" fill="none" xmlns="http://www.w3.org/2000/svg">
<path d="M13.9874 25.3155V30.8135H10.6886C8.33774 30.8135 6.50506 30.2447 5.19059 29.1072C3.87612 27.9444 3.21889 26.0612 3.21889 23.4575V15.0398H0.640504V9.65556H3.21889V4.4988H9.70277V9.65556H13.9495V15.0398H9.70277V23.5333C9.70277 24.1653 9.85443 24.6203 10.1578 24.8984C10.4611 25.1764 10.9667 25.3155 11.6745 25.3155H13.9874ZM16.3099 20.1966C16.3099 18.0227 16.7143 16.1142 17.5232 14.4711C18.3574 12.828 19.4823 11.5641 20.8979 10.6793C22.3135 9.79459 23.8934 9.35222 25.6376 9.35222C27.129 9.35222 28.4308 9.65556 29.543 10.2622C30.6806 10.8689 31.5527 11.6652 32.1593 12.651V9.65556H38.6432V30.8135H32.1593V27.818C31.5274 28.8039 30.6427 29.6001 29.5051 30.2068C28.3929 30.8135 27.0911 31.1168 25.5996 31.1168C23.8807 31.1168 22.3135 30.6744 20.8979 29.7897C19.4823 28.8797 18.3574 27.6031 17.5232 25.96C16.7143 24.2917 16.3099 22.3705 16.3099 20.1966ZM32.1593 20.2345C32.1593 18.6167 31.7043 17.3402 30.7943 16.4049C29.9096 15.4696 28.8226 15.0019 27.5334 15.0019C26.2442 15.0019 25.1446 15.4696 24.2346 16.4049C23.3499 17.3149 22.9075 18.5788 22.9075 20.1966C22.9075 21.8144 23.3499 23.1036 24.2346 24.0642C25.1446 24.9995 26.2442 25.4671 27.5334 25.4671C28.8226 25.4671 29.9096 24.9995 30.7943 24.0642C31.7043 23.1289 32.1593 21.8523 32.1593 20.2345ZM53.9509 15.0398H50.4625V30.8135H43.9786V15.0398H41.6277V9.65556H43.9786V9.04888C43.9786 6.44522 44.7243 4.47352 46.2157 3.13377C47.7072 1.76874 49.8937 1.08623 52.7755 1.08623C53.2557 1.08623 53.6096 1.09887 53.8371 1.12414V6.62217C52.5985 6.54633 51.7264 6.72328 51.2208 7.15301C50.7153 7.58274 50.4625 8.35373 50.4625 9.46597V9.65556H53.9509V15.0398ZM60.2585 7.45635C59.121 7.45635 58.1857 7.12773 57.4526 6.4705C56.7448 5.78799 56.3909 4.9538 56.3909 3.96795C56.3909 2.95682 56.7448 2.12264 57.4526 1.4654C58.1857 0.782887 59.121 0.441631 60.2585 0.441631C61.3708 0.441631 62.2808 0.782887 62.9886 1.4654C63.7216 2.12264 64.0882 2.95682 64.0882 3.96795C64.0882 4.9538 63.7216 5.78799 62.9886 6.4705C62.2808 7.12773 61.3708 7.45635 60.2585 7.45635ZM63.4815 9.65556V30.8135H56.9976V9.65556H63.4815ZM89.7932 9.65556L76.5221 40.8616H69.5453L74.3987 30.093L65.7915 9.65556H73.0337L77.9251 22.8887L82.7785 9.65556H89.7932ZM120.906 31.1168C119.769 31.1168 118.833 30.7882 118.1 30.131C117.393 29.4484 117.039 28.6143 117.039 27.6284C117.039 26.6173 117.393 25.7705 118.1 25.0879C118.833 24.4054 119.769 24.0642 120.906 24.0642C122.018 24.0642 122.928 24.4054 123.636 25.0879C124.369 25.7705 124.736 26.6173 124.736 27.6284C124.736 28.6143 124.369 29.4484 123.636 30.131C122.928 30.7882 122.018 31.1168 120.906 31.1168Z" fill="black"/>
<path d="M90.8487 20.1966C90.8487 18.0227 91.2531 16.1142 92.062 14.4711C92.8962 12.828 94.0211 11.5641 95.4367 10.6793C96.8523 9.79459 98.4322 9.35222 100.176 9.35222C101.668 9.35222 102.97 9.65556 104.082 10.2622C105.219 10.8689 106.091 11.6652 106.698 12.651V9.65556H113.182V30.8135H106.698V27.818C106.066 28.8039 105.181 29.6001 104.044 30.2068C102.932 30.8135 101.63 31.1168 100.138 31.1168C98.4195 31.1168 96.8523 30.6744 95.4367 29.7897C94.0211 28.8797 92.8962 27.6031 92.062 25.96C91.2531 24.2917 90.8487 22.3705 90.8487 20.1966ZM106.698 20.2345C106.698 18.6167 106.243 17.3402 105.333 16.4049C104.448 15.4696 103.361 15.0019 102.072 15.0019C100.783 15.0019 99.6834 15.4696 98.7734 16.4049C97.8887 17.3149 97.4463 18.5788 97.4463 20.1966C97.4463 21.8144 97.8887 23.1036 98.7734 24.0642C99.6834 24.9995 100.783 25.4671 102.072 25.4671C103.361 25.4671 104.448 24.9995 105.333 24.0642C106.243 23.1289 106.698 21.8523 106.698 20.2345Z" fill="#F1A501"/>
<ellipse cx="102.158" cy="20" rx="3.61291" ry="3.70648" fill="black"/>
</svg>
