<svg preserveAspectRatio="none" width="100%" height="100%" overflow="visible" style="display: block;" viewBox="0 0 22 22" fill="none" xmlns="http://www.w3.org/2000/svg">
<path id="Vector" d="M21.4554 4.47549C21.752 4.47549 21.9946 4.23284 22 3.93627V0.544608C22 0.242647 21.7574 0 21.4554 0H18.0637C17.7672 0 17.5245 0.242647 17.5245 0.544608V1.72549H4.47549V0.544608C4.47549 0.248039 4.23284 0.00539216 3.93627 0H0.544608C0.248039 0 0.00539216 0.242647 0 0.544608V3.93627C0 4.23284 0.242647 4.47549 0.544608 4.47549H1.72549V17.5245H0.544608C0.248039 17.5245 0.00539216 17.7672 0 18.0637V21.4554C0 21.752 0.242647 21.9946 0.544608 22H3.93627C4.23284 22 4.47549 21.7574 4.47549 21.4554V20.2745H17.5245V21.4554C17.5245 21.752 17.7672 21.9946 18.0637 22H21.4554C21.752 22 21.9946 21.7574 22 21.4554V18.0637C22 17.7672 21.7574 17.5245 21.4554 17.5245H20.2745V4.47549H21.4554ZM1.07843 3.39706V1.07843H3.39706V3.39706H1.07843ZM3.39706 20.9216H1.07843V18.6029H3.39706V20.9216ZM17.5245 18.0637V19.1961H4.47549V18.0637C4.47549 17.7672 4.23284 17.5245 3.93627 17.5245H2.80392V4.47549H3.93627C4.23284 4.47549 4.47549 4.23284 4.47549 3.93627V2.80392H17.5245V3.93627C17.5245 4.23284 17.7672 4.47549 18.0637 4.47549H19.1961V17.5245H18.0637C17.7672 17.5245 17.5245 17.7672 17.5245 18.0637ZM20.9216 18.6029V20.9216H18.6029V18.6029H20.9216ZM18.6029 3.39706V1.07843H20.9216V3.39706H18.6029Z" fill="var(--fill-0, white)"/>
</svg>
