<svg preserveAspectRatio="none" width="100%" height="100%" overflow="visible" style="display: block;" viewBox="0 0 22.0541 17.8602" fill="none" xmlns="http://www.w3.org/2000/svg">
<g id="water-sport 1" clip-path="url(#clip0_0_40)">
<path id="Vector" d="M19.8454 17.8597C19.3953 17.8689 18.9531 17.7401 18.5783 17.4906C18.2993 17.3083 17.9733 17.2113 17.64 17.2113C17.3068 17.2113 16.9807 17.3083 16.7017 17.4906C16.3231 17.7317 15.8836 17.8597 15.4348 17.8597C14.9859 17.8597 14.5464 17.7317 14.1678 17.4906C13.8888 17.3081 13.5627 17.211 13.2294 17.211C12.896 17.211 12.5699 17.3081 12.2909 17.4906C11.9123 17.7317 11.4728 17.8597 11.024 17.8597C10.5751 17.8597 10.1356 17.7317 9.75698 17.4906C9.4782 17.3083 9.15231 17.2111 8.81919 17.2111C8.48607 17.2111 8.16018 17.3083 7.88141 17.4906C7.53814 17.7187 7.13753 17.8455 6.72552 17.8565L6.70281 17.2078C7.00715 17.2006 7.30269 17.1043 7.55287 16.9308C7.93138 16.6898 8.37079 16.5618 8.81952 16.5618C9.26824 16.5618 9.70765 16.6898 10.0862 16.9308C10.3651 17.1132 10.6912 17.2103 11.0244 17.2103C11.3577 17.2103 11.6838 17.1132 11.9627 16.9308C12.3414 16.6896 12.781 16.5615 13.23 16.5615C13.679 16.5615 14.1186 16.6896 14.4973 16.9308C14.7763 17.1132 15.1023 17.2103 15.4356 17.2103C15.7688 17.2103 16.0949 17.1132 16.3738 16.9308C16.7525 16.6899 17.192 16.5619 17.6408 16.5619C18.0896 16.5619 18.5291 16.6899 18.9078 16.9308C19.1874 17.1136 19.5143 17.211 19.8483 17.211C20.1824 17.211 20.5092 17.1136 20.7889 16.9308C21.1633 16.6821 21.6047 16.5535 22.0541 16.5624V17.211C21.7195 17.2019 21.3907 17.2997 21.1155 17.4903C20.7397 17.7401 20.2965 17.869 19.8454 17.8597V17.8597Z" fill="var(--fill-0, white)"/>
<path id="Vector_2" d="M2.2054 17.8597C1.75534 17.869 1.31323 17.7402 0.938594 17.4906C0.66347 17.2999 0.334649 17.2019 0 17.2111V16.5624C0.45017 16.5531 0.892396 16.6819 1.26713 16.9315C1.54211 17.1223 1.87085 17.2202 2.2054 17.2111C2.54011 17.2203 2.86899 17.1222 3.144 16.9312C3.51794 16.6817 3.95944 16.553 4.40886 16.5624C4.8474 16.5526 5.27867 16.6754 5.64616 16.9149L5.31892 17.4747C5.05049 17.2941 4.73229 17.2019 4.40886 17.2111C4.07554 17.2021 3.74805 17.2998 3.47416 17.49C3.09909 17.7403 2.65621 17.8693 2.2054 17.8597V17.8597Z" fill="var(--fill-0, white)"/>
<path id="Vector_3" d="M19.8464 15.5891C19.3959 15.5983 18.9534 15.4695 18.5783 15.22C18.2991 15.0376 17.9727 14.9404 17.6392 14.9404C17.3056 14.9404 16.9793 15.0376 16.7001 15.22C16.3215 15.461 15.8821 15.589 15.4333 15.589C14.9845 15.589 14.5451 15.461 14.1665 15.22C13.8877 15.0377 13.5617 14.9406 13.2285 14.9406C12.8954 14.9406 12.5694 15.0377 12.2906 15.22C11.912 15.4611 11.4726 15.5891 11.0238 15.5891C10.575 15.5891 10.1355 15.4611 9.75697 15.22C9.47814 15.0377 9.15219 14.9406 8.81903 14.9406C8.48586 14.9406 8.15992 15.0377 7.88108 15.22C7.50646 15.4697 7.06434 15.5985 6.61427 15.5891C6.1642 15.5985 5.72208 15.4697 5.34746 15.22C5.07259 15.0293 4.74396 14.9314 4.40951 14.9405C4.07517 14.9314 3.74667 15.0293 3.47189 15.22C3.09786 15.4694 2.65645 15.5982 2.20703 15.5891C1.75686 15.5985 1.31463 15.4697 0.939892 15.22C0.664467 15.0289 0.335107 14.931 0 14.9405V14.2918C0.450063 14.2825 0.892172 14.4113 1.26681 14.6609C1.54194 14.8516 1.87076 14.9496 2.20541 14.9405C2.53975 14.9496 2.86825 14.8516 3.14303 14.6609C3.51706 14.4116 3.95847 14.2828 4.40789 14.2918C4.85829 14.2823 5.30079 14.4111 5.67568 14.6609C5.95065 14.8517 6.27939 14.9497 6.61395 14.9405C6.9485 14.9497 7.27724 14.8517 7.55222 14.6609C7.93076 14.4198 8.37023 14.2918 8.81903 14.2918C9.26782 14.2918 9.7073 14.4198 10.0858 14.6609C10.3647 14.8433 10.6907 14.9404 11.0239 14.9404C11.3572 14.9404 11.6832 14.8433 11.9621 14.6609C12.3406 14.4198 12.7801 14.2918 13.2289 14.2918C13.6777 14.2918 14.1171 14.4198 14.4957 14.6609C14.7746 14.8433 15.1006 14.9404 15.4338 14.9404C15.767 14.9404 16.093 14.8433 16.3719 14.6609C16.7508 14.4199 17.1906 14.2919 17.6397 14.2919C18.0888 14.2919 18.5285 14.4199 18.9075 14.6609C19.1868 14.8432 19.5133 14.9403 19.8469 14.9403C20.1805 14.9403 20.5069 14.8432 20.7863 14.6609C21.1613 14.4115 21.6037 14.2827 22.0541 14.2918V14.9405C21.7188 14.931 21.3892 15.029 21.1135 15.22C20.7386 15.4693 20.2965 15.5981 19.8464 15.5891V15.5891Z" fill="var(--fill-0, white)"/>
<path id="Vector_4" d="M19.8454 13.3192C19.3953 13.3284 18.9531 13.1996 18.5783 12.9501C18.3032 12.7594 17.9743 12.6614 17.6397 12.6705C17.3941 12.6621 17.1502 12.7145 16.9297 12.823L16.6437 12.2392C16.9533 12.0874 17.295 12.0126 17.6397 12.0209C18.0904 12.0117 18.5331 12.1409 18.9081 12.391C19.1877 12.5738 19.5146 12.6711 19.8487 12.6711C20.1827 12.6711 20.5096 12.5738 20.7892 12.391C21.1634 12.142 21.6047 12.0133 22.0541 12.0219V12.6705C21.7195 12.6614 21.3907 12.7592 21.1155 12.9498C20.7397 13.1996 20.2965 13.3285 19.8454 13.3192Z" fill="var(--fill-0, white)"/>
<path id="Vector_5" d="M15.4314 13.3191C14.9819 13.3285 14.5404 13.1998 14.1665 12.9504C13.8875 12.7679 13.5614 12.6707 13.2281 12.6707C12.8947 12.6707 12.5686 12.7679 12.2896 12.9504C11.911 13.1914 11.4715 13.3194 11.0226 13.3194C10.5738 13.3194 10.1343 13.1914 9.75568 12.9504C9.47673 12.768 9.15068 12.6709 8.81741 12.6709C8.48413 12.6709 8.15809 12.768 7.87914 12.9504C7.50457 13.1995 7.06276 13.3282 6.61297 13.3191C6.16291 13.3284 5.7208 13.1996 5.34616 12.95C5.07104 12.7593 4.74222 12.6614 4.40757 12.6705C4.07424 12.6615 3.74676 12.7592 3.47287 12.9494C3.09816 13.1994 2.65577 13.3285 2.20541 13.3191C1.75534 13.3284 1.31323 13.1996 0.938595 12.95C0.66347 12.7593 0.334649 12.6614 0 12.6705V12.0218C0.45017 12.0125 0.892396 12.1413 1.26714 12.3909C1.54211 12.5817 1.87085 12.6796 2.20541 12.6705C2.54011 12.6797 2.86899 12.5816 3.144 12.3906C3.51794 12.1411 3.95944 12.0124 4.40887 12.0218C4.85893 12.0125 5.30103 12.1413 5.67568 12.3909C5.95065 12.5817 6.27939 12.6796 6.61395 12.6705C6.9486 12.6796 7.27742 12.5816 7.55254 12.3909C7.93116 12.1498 8.37068 12.0218 8.81951 12.0218C9.26835 12.0218 9.70787 12.1498 10.0865 12.3909C10.3654 12.5733 10.6915 12.6704 11.0248 12.6704C11.358 12.6704 11.6841 12.5733 11.963 12.3909C12.3417 12.1497 12.7813 12.0215 13.2303 12.0215C13.6793 12.0215 14.1189 12.1497 14.4976 12.3909C14.7834 12.5831 15.1222 12.6807 15.4664 12.6701C15.4914 12.6705 15.5164 12.6692 15.5413 12.6662L15.6276 13.3091C15.5625 13.3167 15.4969 13.32 15.4314 13.3191V13.3191Z" fill="var(--fill-0, white)"/>
<path id="Vector_6" d="M19.8464 11.0485C19.3959 11.0577 18.9534 10.9289 18.5783 10.6794C18.2991 10.497 17.9727 10.3998 17.6392 10.3998C17.3056 10.3998 16.9793 10.497 16.7001 10.6794C16.3215 10.9204 15.8821 11.0484 15.4333 11.0484C14.9845 11.0484 14.5451 10.9204 14.1665 10.6794C13.8877 10.4971 13.5617 10.4 13.2285 10.4C12.8954 10.4 12.5694 10.4971 12.2906 10.6794C11.912 10.9205 11.4726 11.0485 11.0238 11.0485C10.575 11.0485 10.1355 10.9205 9.75697 10.6794C9.47814 10.4971 9.15219 10.4 8.81903 10.4C8.48586 10.4 8.15992 10.4971 7.88108 10.6794C7.50646 10.9291 7.06434 11.0579 6.61427 11.0485C6.1642 11.0579 5.72208 10.9291 5.34746 10.6794C5.07259 10.4887 4.74396 10.3907 4.40951 10.3999C4.07517 10.3908 3.74667 10.4887 3.47189 10.6794C3.09786 10.9288 2.65645 11.0576 2.20703 11.0485C1.75686 11.0579 1.31463 10.9291 0.939892 10.6794C0.664467 10.4883 0.335107 10.3904 0 10.3999V9.75123C0.450063 9.74192 0.892172 9.87073 1.26681 10.1203C1.54194 10.311 1.87076 10.409 2.20541 10.3999C2.53975 10.409 2.86825 10.311 3.14303 10.1203C3.51706 9.87098 3.95847 9.74218 4.40789 9.75123C4.85829 9.74166 5.30079 9.87048 5.67568 10.1203C5.95065 10.3111 6.27939 10.409 6.61395 10.3999C6.9485 10.409 7.27724 10.3111 7.55222 10.1203C7.93076 9.87921 8.37023 9.75114 8.81903 9.75114C9.26782 9.75114 9.7073 9.87921 10.0858 10.1203C10.3647 10.3027 10.6907 10.3998 11.0239 10.3998C11.3572 10.3998 11.6832 10.3027 11.9621 10.1203C12.3406 9.87921 12.7801 9.75114 13.2289 9.75114C13.6777 9.75114 14.1171 9.87921 14.4957 10.1203C14.7746 10.3027 15.1006 10.3998 15.4338 10.3998C15.767 10.3998 16.093 10.3027 16.3719 10.1203C16.7508 9.87931 17.1906 9.75131 17.6397 9.75131C18.0888 9.75131 18.5285 9.87931 18.9075 10.1203C19.1868 10.3026 19.5133 10.3997 19.8469 10.3997C20.1805 10.3997 20.5069 10.3026 20.7863 10.1203C21.1613 9.87088 21.6037 9.7421 22.0541 9.75123V10.3999C21.7188 10.3904 21.3892 10.4884 21.1135 10.6794C20.7386 10.9287 20.2965 11.0575 19.8464 11.0485V11.0485Z" fill="var(--fill-0, white)"/>
<path id="Vector_7" d="M15.2248 10.7735L14.6128 10.5588C14.7704 10.1059 14.8348 9.62587 14.8021 9.14749C14.7693 8.66911 14.6402 8.20228 14.4224 7.77511L12.1946 3.41262C12.1726 3.36954 12.1605 3.32209 12.1592 3.27373C12.158 3.22538 12.1675 3.17735 12.1872 3.13316C12.2069 3.08898 12.2362 3.04976 12.273 3.01837C12.3098 2.98698 12.3532 2.96422 12.3999 2.95176L16.8396 1.76798C16.9843 1.73014 17.1081 1.6367 17.1843 1.50799C17.2604 1.37928 17.2826 1.22571 17.2461 1.0807C17.2096 0.935679 17.1173 0.810945 16.9893 0.733633C16.8613 0.656321 16.7079 0.632685 16.5626 0.667868L11.1892 1.95219C11.0743 1.97934 10.9672 2.03256 10.8763 2.10774C10.7853 2.18292 10.7128 2.27804 10.6645 2.38572C10.6161 2.49341 10.5933 2.61078 10.5976 2.72873C10.6019 2.84669 10.6333 2.96206 10.6894 3.06592L12.2851 6.03024C12.3256 6.10559 12.3346 6.19386 12.3103 6.27586C12.286 6.35787 12.2303 6.42695 12.1554 6.46808L10.0959 7.60322L9.78292 7.035L11.5609 6.05489L10.1189 3.37338C10.0158 3.18195 9.95802 2.96937 9.95015 2.75206C9.94229 2.53475 9.9845 2.31855 10.0735 2.12016C10.1626 1.92177 10.296 1.74652 10.4636 1.60796C10.6312 1.46939 10.8284 1.37123 11.04 1.32106L16.4108 0.0370572C16.7235 -0.0419486 17.0547 0.00648876 17.3317 0.171713C17.6086 0.336938 17.8086 0.605415 17.8876 0.918084C17.9666 1.23075 17.9182 1.562 17.753 1.83896C17.5877 2.11591 17.3193 2.31589 17.0066 2.39489L12.9545 3.47489L15.0003 7.47965C15.2579 7.98517 15.4106 8.53757 15.4492 9.10363C15.4878 9.66969 15.4114 10.2377 15.2248 10.7735V10.7735Z" fill="var(--fill-0, white)"/>
<path id="Vector_8" d="M8.6493 7.66493L4.70804 9.83668L5.02093 10.4045L8.96219 8.23276L8.6493 7.66493Z" fill="var(--fill-0, white)"/>
<path id="Vector_9" d="M18.1622 8.61611C17.6811 8.61611 17.2108 8.47345 16.8108 8.20617C16.4108 7.93889 16.099 7.559 15.9149 7.11453C15.7308 6.67006 15.6826 6.18098 15.7765 5.70913C15.8703 5.23729 16.102 4.80387 16.4422 4.46369C16.7824 4.12351 17.2158 3.89184 17.6876 3.79799C18.1595 3.70413 18.6485 3.7523 19.093 3.9364C19.5375 4.12051 19.9174 4.43228 20.1847 4.83229C20.4519 5.2323 20.5946 5.70259 20.5946 6.18368C20.5939 6.82859 20.3374 7.44689 19.8814 7.90291C19.4254 8.35893 18.8071 8.61542 18.1622 8.61611V8.61611ZM18.1622 4.39989C17.8094 4.39989 17.4645 4.50451 17.1711 4.70052C16.8778 4.89652 16.6492 5.17511 16.5142 5.50105C16.3792 5.827 16.3438 6.18566 16.4127 6.53168C16.4815 6.8777 16.6514 7.19554 16.9008 7.445C17.1503 7.69447 17.4681 7.86436 17.8142 7.93319C18.1602 8.00201 18.5188 7.96669 18.8448 7.83168C19.1707 7.69667 19.4493 7.46804 19.6453 7.17469C19.8413 6.88135 19.9459 6.53648 19.9459 6.18368C19.9453 5.71077 19.7572 5.25741 19.4228 4.92302C19.0884 4.58862 18.6351 4.4005 18.1622 4.39989V4.39989Z" fill="var(--fill-0, white)"/>
</g>
<defs>
<clipPath id="clip0_0_40">
<rect width="22.0541" height="17.8602" fill="white"/>
</clipPath>
</defs>
</svg>
