<svg preserveAspectRatio="none" width="100%" height="100%" overflow="visible" style="display: block;" viewBox="0 0 16 16" fill="none" xmlns="http://www.w3.org/2000/svg">
<g id="Group">
<path id="Vector" d="M15.7333 15.4667H14.1333V6.66667C14.1333 6.5194 14.0139 6.4 13.8667 6.4H10.1333V0.266667C10.1333 0.1194 10.0139 0 9.86668 0H2.93335C2.78608 0 2.66668 0.1194 2.66668 0.266667V15.4667H0.266679C0.119412 15.4667 1.21593e-05 15.5861 1.21593e-05 15.7333C1.21593e-05 15.8806 0.119412 16 0.266679 16H15.7333C15.8806 16 16 15.8806 16 15.7333C16 15.5861 15.8806 15.4667 15.7333 15.4667ZM5.60001 15.4667H4.53335V13.0667C4.53335 12.9194 4.65275 12.8 4.80001 12.8H5.33335C5.48061 12.8 5.60001 12.9194 5.60001 13.0667V15.4667ZM6.66668 6.66667V15.4667H6.13335V13.0667C6.13335 12.6248 5.77518 12.2667 5.33335 12.2667H4.80001C4.35818 12.2667 4.00001 12.6248 4.00001 13.0667V15.4667H3.20001V0.533333H9.60001V6.4H6.93335C6.78608 6.4 6.66668 6.5194 6.66668 6.66667ZM13.6 15.4667H7.20001V6.93333H13.6V15.4667Z" fill="var(--fill-0, #84829A)"/>
<path id="Vector_2" d="M8.53337 3.7334H6.93337C6.7861 3.7334 6.6667 3.8528 6.6667 4.00007V5.60007C6.6667 5.74733 6.7861 5.86673 6.93337 5.86673H8.53337C8.68063 5.86673 8.80003 5.74733 8.80003 5.60007V4.00007C8.80003 3.8528 8.68063 3.7334 8.53337 3.7334ZM8.2667 5.3334H7.20003V4.26673H8.2667V5.3334Z" fill="var(--fill-0, #84829A)"/>
<path id="Vector_3" d="M8.53337 1.06665H6.93337C6.7861 1.06665 6.6667 1.18605 6.6667 1.33332V2.93332C6.6667 3.08058 6.7861 3.19998 6.93337 3.19998H8.53337C8.68063 3.19998 8.80003 3.08058 8.80003 2.93332V1.33332C8.80003 1.18605 8.68063 1.06665 8.53337 1.06665ZM8.2667 2.66665H7.20003V1.59998H8.2667V2.66665Z" fill="var(--fill-0, #84829A)"/>
<path id="Vector_4" d="M5.86668 3.7334H4.26668C4.11941 3.7334 4.00001 3.8528 4.00001 4.00007V5.60007C4.00001 5.74733 4.11941 5.86673 4.26668 5.86673H5.86668C6.01395 5.86673 6.13335 5.74733 6.13335 5.60007V4.00007C6.13335 3.8528 6.01395 3.7334 5.86668 3.7334ZM5.60001 5.3334H4.53335V4.26673H5.60001V5.3334Z" fill="var(--fill-0, #84829A)"/>
<path id="Vector_5" d="M5.86668 1.06665H4.26668C4.11941 1.06665 4.00001 1.18605 4.00001 1.33332V2.93332C4.00001 3.08058 4.11941 3.19998 4.26668 3.19998H5.86668C6.01395 3.19998 6.13335 3.08058 6.13335 2.93332V1.33332C6.13335 1.18605 6.01395 1.06665 5.86668 1.06665ZM5.60001 2.66665H4.53335V1.59998H5.60001V2.66665Z" fill="var(--fill-0, #84829A)"/>
<path id="Vector_6" d="M5.86668 6.3999H4.26668C4.11941 6.3999 4.00001 6.5193 4.00001 6.66657V8.26657C4.00001 8.41384 4.11941 8.53324 4.26668 8.53324H5.86668C6.01395 8.53324 6.13335 8.41384 6.13335 8.26657V6.66657C6.13335 6.5193 6.01395 6.3999 5.86668 6.3999ZM5.60001 7.9999H4.53335V6.93324H5.60001V7.9999Z" fill="var(--fill-0, #84829A)"/>
<path id="Vector_7" d="M5.86668 9.06665H4.26668C4.11941 9.06665 4.00001 9.18605 4.00001 9.33332V10.9333C4.00001 11.0806 4.11941 11.2 4.26668 11.2H5.86668C6.01395 11.2 6.13335 11.0806 6.13335 10.9333V9.33332C6.13335 9.18605 6.01395 9.06665 5.86668 9.06665ZM5.60001 10.6667H4.53335V9.59998H5.60001V10.6667Z" fill="var(--fill-0, #84829A)"/>
<path id="Vector_8" d="M10.9334 12.2666H12.5334C12.6806 12.2666 12.8 12.1472 12.8 12V10.4C12.8 10.2527 12.6806 10.1333 12.5334 10.1333H10.9334C10.7861 10.1333 10.6667 10.2527 10.6667 10.4V12C10.6667 12.1472 10.7861 12.2666 10.9334 12.2666ZM11.2 10.6666H12.2667V11.7333H11.2V10.6666Z" fill="var(--fill-0, #84829A)"/>
<path id="Vector_9" d="M10.9334 9.59989H12.5334C12.6806 9.59989 12.8 9.48049 12.8 9.33322V7.73322C12.8 7.58595 12.6806 7.46655 12.5334 7.46655H10.9334C10.7861 7.46655 10.6667 7.58595 10.6667 7.73322V9.33322C10.6667 9.48049 10.7861 9.59989 10.9334 9.59989ZM11.2 7.99989H12.2667V9.06655H11.2V7.99989Z" fill="var(--fill-0, #84829A)"/>
<path id="Vector_10" d="M10.9334 14.9334H12.5334C12.6806 14.9334 12.8 14.814 12.8 14.6667V13.0667C12.8 12.9194 12.6806 12.8 12.5334 12.8H10.9334C10.7861 12.8 10.6667 12.9194 10.6667 13.0667V14.6667C10.6667 14.814 10.7861 14.9334 10.9334 14.9334ZM11.2 13.3334H12.2667V14.4H11.2V13.3334Z" fill="var(--fill-0, #84829A)"/>
<path id="Vector_11" d="M8.26668 12.2666H9.86668C10.0139 12.2666 10.1333 12.1472 10.1333 12V10.4C10.1333 10.2527 10.0139 10.1333 9.86668 10.1333H8.26668C8.11941 10.1333 8.00001 10.2527 8.00001 10.4V12C8.00001 12.1472 8.11941 12.2666 8.26668 12.2666ZM8.53335 10.6666H9.60001V11.7333H8.53335V10.6666Z" fill="var(--fill-0, #84829A)"/>
<path id="Vector_12" d="M8.26668 9.59989H9.86668C10.0139 9.59989 10.1333 9.48049 10.1333 9.33322V7.73322C10.1333 7.58595 10.0139 7.46655 9.86668 7.46655H8.26668C8.11941 7.46655 8.00001 7.58595 8.00001 7.73322V9.33322C8.00001 9.48049 8.11941 9.59989 8.26668 9.59989ZM8.53335 7.99989H9.60001V9.06655H8.53335V7.99989Z" fill="var(--fill-0, #84829A)"/>
<path id="Vector_13" d="M8.26668 14.9334H9.86668C10.0139 14.9334 10.1333 14.814 10.1333 14.6667V13.0667C10.1333 12.9194 10.0139 12.8 9.86668 12.8H8.26668C8.11941 12.8 8.00001 12.9194 8.00001 13.0667V14.6667C8.00001 14.814 8.11941 14.9334 8.26668 14.9334ZM8.53335 13.3334H9.60001V14.4H8.53335V13.3334Z" fill="var(--fill-0, #84829A)"/>
</g>
</svg>
