<svg preserveAspectRatio="none" width="100%" height="100%" overflow="visible" style="display: block;" viewBox="0 0 497 282" fill="none" xmlns="http://www.w3.org/2000/svg">
<g id="Frame 2" opacity="0.1" clip-path="url(#clip0_0_14)">
<path id="Ellipse 19" d="M256.045 262.202C256.045 331.635 199.839 387.92 130.506 387.92C61.173 387.92 4.96581 331.635 4.96581 262.202C4.96584 192.769 61.173 136.484 130.506 136.484C199.839 136.485 256.045 192.77 256.045 262.202Z" stroke="var(--stroke-0, #6246E5)"/>
<path id="Ellipse 20" d="M284.238 252.238C284.238 329.925 221.349 392.902 143.773 392.902C66.1975 392.902 3.30781 329.925 3.30761 252.238C3.30761 174.55 66.1973 111.573 143.773 111.573C221.349 111.573 284.238 174.55 284.238 252.238Z" stroke="var(--stroke-0, #6246E5)"/>
<path id="Ellipse 21" d="M308.285 243.935C308.285 328.96 239.456 397.885 154.553 397.885C69.6494 397.885 0.820541 328.96 0.820306 243.935C0.820309 158.909 69.6493 89.9834 154.553 89.9834C239.456 89.9834 308.285 158.909 308.285 243.935Z" stroke="var(--stroke-0, #6246E5)"/>
<path id="Ellipse 22" d="M335.648 235.63C335.648 327.076 261.621 401.207 170.307 401.207C78.992 401.206 4.96587 327.076 4.96581 235.63C4.96582 144.185 78.992 70.0544 170.307 70.0542C261.621 70.0542 335.648 144.185 335.648 235.63Z" stroke="var(--stroke-0, #6246E5)"/>
<path id="Ellipse 23" d="M362.184 227.741C362.184 325.378 283.145 404.527 185.647 404.527C88.1504 404.527 9.11229 325.378 9.1123 227.741C9.11233 130.104 88.1504 50.9553 185.647 50.9551C283.145 50.9551 362.184 130.104 362.184 227.741Z" stroke="var(--stroke-0, #6246E5)"/>
<path id="Ellipse 24" d="M397.01 214.456C397.01 321.724 310.175 408.68 203.061 408.68C95.9464 408.68 9.11155 321.723 9.11132 214.456C9.11132 107.188 95.9463 20.2316 203.061 20.2314C310.175 20.2314 397.01 107.188 397.01 214.456Z" stroke="var(--stroke-0, #6246E5)"/>
</g>
<defs>
<clipPath id="clip0_0_14">
<rect width="497" height="282" fill="white"/>
</clipPath>
</defs>
</svg>
