<svg preserveAspectRatio="none" width="100%" height="100%" overflow="visible" style="display: block;" viewBox="0 0 275 156" fill="none" xmlns="http://www.w3.org/2000/svg">
<g id="Frame 3" opacity="0.1" clip-path="url(#clip0_0_4)">
<path id="Ellipse 19" d="M172.675 176.616C172.675 223.385 134.815 261.298 88.1133 261.298C41.4115 261.298 3.55175 223.385 3.55175 176.616C3.55185 129.847 41.4116 91.9345 88.1133 91.9345C134.815 91.9345 172.675 129.847 172.675 176.616Z" stroke="var(--stroke-0, #6246E5)" stroke-width="0.673587"/>
<path id="Ellipse 20" d="M191.665 169.903C191.665 222.232 149.304 264.653 97.0498 264.653C44.7956 264.653 2.43368 222.233 2.43359 169.903C2.43359 117.574 44.7955 75.1532 97.0498 75.1532C149.304 75.1533 191.665 117.574 191.665 169.903Z" stroke="var(--stroke-0, #6246E5)" stroke-width="0.673587"/>
<path id="Ellipse 21" d="M207.863 164.31C207.863 221.582 161.501 268.009 104.311 268.01C47.1212 268.01 0.758327 221.582 0.758296 164.31C0.758299 107.038 47.1212 60.6112 104.311 60.6112C161.501 60.6114 207.863 107.039 207.863 164.31Z" stroke="var(--stroke-0, #6246E5)" stroke-width="0.673587"/>
<path id="Ellipse 22" d="M226.294 158.718C226.294 220.314 176.431 270.247 114.922 270.247C53.4141 270.247 3.5515 220.314 3.55126 158.718C3.55127 97.121 53.414 47.1876 114.922 47.1874C176.431 47.1874 226.294 97.1209 226.294 158.718Z" stroke="var(--stroke-0, #6246E5)" stroke-width="0.673587"/>
<path id="Ellipse 23" d="M244.168 153.404C244.168 219.171 190.929 272.485 125.256 272.485C59.5835 272.485 6.34435 219.171 6.34423 153.404C6.34424 87.6371 59.5834 34.3231 125.256 34.3231C190.929 34.3231 244.168 87.6371 244.168 153.404Z" stroke="var(--stroke-0, #6246E5)" stroke-width="0.673587"/>
<path id="Ellipse 24" d="M267.627 144.455C267.627 216.709 209.136 275.281 136.985 275.281C64.8346 275.281 6.34391 216.709 6.34374 144.455C6.34375 72.2008 64.8345 13.6279 136.985 13.6278C209.136 13.6278 267.627 72.2008 267.627 144.455Z" stroke="var(--stroke-0, #6246E5)" stroke-width="0.673587"/>
</g>
<defs>
<clipPath id="clip0_0_4">
<rect width="275" height="156" fill="white"/>
</clipPath>
</defs>
</svg>
