<svg preserveAspectRatio="none" width="100%" height="100%" overflow="visible" style="display: block;" viewBox="0 0 13.1236 12.3138" fill="none" xmlns="http://www.w3.org/2000/svg">
<path id="Vector" d="M4.35103 12.3138C1.96975 12.3001 0 7.43909 0 4.9635C0 0.919625 3.03359 0.0343125 4.20272 0.0343125C4.72959 0.0343125 5.29219 0.241219 5.78841 0.424312C6.13541 0.552031 6.49428 0.683875 6.69388 0.683875C6.81334 0.683875 7.09488 0.571719 7.34344 0.473313C7.87353 0.262281 8.53316 0 9.30128 0C9.30266 0 9.3045 0 9.30584 0C9.87941 0 11.6185 0.125875 12.664 1.696L12.9089 2.06403L12.5564 2.33C12.0529 2.70994 11.1342 3.403 11.1342 4.77584C11.1342 6.40181 12.1747 7.02713 12.6745 7.32788C12.8952 7.46063 13.1236 7.5975 13.1236 7.89687C13.1236 8.09234 11.5635 12.2896 9.29806 12.2896C8.74372 12.2896 8.35188 12.1229 8.00625 11.976C7.65653 11.8272 7.35484 11.6991 6.85634 11.6991C6.60366 11.6991 6.28413 11.8185 5.94584 11.9453C5.48356 12.1179 4.96031 12.3138 4.36659 12.3138H4.35103Z" fill="var(--fill-0, white)"/>
</svg>
