<svg preserveAspectRatio="none" width="100%" height="100%" overflow="visible" style="display: block;" viewBox="0 0 13.1237 15.9998" fill="none" xmlns="http://www.w3.org/2000/svg">
<g id="Group">
<path id="Vector" d="M4.35112 15.9998C1.96984 15.9861 8.91685e-05 11.1251 8.91685e-05 8.64954C8.91685e-05 4.60566 3.03368 3.72035 4.20281 3.72035C4.72968 3.72035 5.29228 3.92725 5.7885 4.11035C6.1355 4.23807 6.49437 4.36991 6.69397 4.36991C6.81343 4.36991 7.09496 4.25775 7.34353 4.15935C7.87362 3.94832 8.53325 3.68604 9.30137 3.68604C9.30275 3.68604 9.30459 3.68604 9.30593 3.68604C9.8795 3.68604 11.6186 3.81191 12.6641 5.38204L12.909 5.75007L12.5565 6.01604C12.053 6.39597 11.1342 7.08904 11.1342 8.46188C11.1342 10.0878 12.1747 10.7132 12.6746 11.0139C12.8953 11.1467 13.1237 11.2835 13.1237 11.5829C13.1237 11.7784 11.5636 15.9756 9.29815 15.9756C8.74381 15.9756 8.35196 15.809 8.00634 15.662C7.65662 15.5133 7.35493 15.3851 6.85643 15.3851C6.60375 15.3851 6.28421 15.5046 5.94593 15.6314C5.48365 15.8039 4.9604 15.9998 4.36668 15.9998H4.35112Z" fill="var(--fill-0, white)"/>
<path id="Vector_2" d="M9.54139 0C9.60039 2.12737 8.07898 3.60325 6.55935 3.51069C6.30895 1.81297 8.0788 0 9.54139 0Z" fill="var(--fill-0, white)"/>
</g>
</svg>
