<svg preserveAspectRatio="none" width="100%" height="100%" overflow="visible" style="display: block;" viewBox="0 0 20 20" fill="none" xmlns="http://www.w3.org/2000/svg">
<g id="google-play 1" clip-path="url(#clip0_0_6)">
<path id="Vector" d="M11.5074 10.0018L1.46386 19.673C0.993538 19.3516 0.714298 18.8169 0.719235 18.2473V1.75622C0.714298 1.18658 0.993538 0.651943 1.46386 0.330519L11.5074 10.0018Z" fill="var(--fill-0, #2196F3)"/>
<path id="Vector_2" d="M15.0217 6.62364L11.5074 10.0018L1.46387 0.330526C1.50171 0.301197 1.54113 0.273912 1.5819 0.248797C2.11272 -0.0729245 2.77574 -0.0833108 3.31638 0.221554L15.0217 6.62364Z" fill="var(--fill-0, #4CAF50)"/>
<path id="Vector_3" d="M19.2807 10.0018C19.2873 10.6448 18.9378 11.2388 18.3726 11.5455L15.0218 13.3799L11.5074 10.0018L15.0218 6.62365L18.3726 8.45799C18.9378 8.76473 19.2873 9.35871 19.2807 10.0018Z" fill="var(--fill-0, #F0BB1F)"/>
<path id="Vector_4" d="M15.0217 13.3799L3.31638 19.782C2.77455 20.0821 2.11404 20.0717 1.5819 19.7547C1.54113 19.7296 1.50171 19.7023 1.46387 19.673L11.5074 10.0018L15.0217 13.3799Z" fill="var(--fill-0, #F15A2B)"/>
</g>
<defs>
<clipPath id="clip0_0_6">
<rect width="20" height="20" fill="white"/>
</clipPath>
</defs>
</svg>
