<svg width="16" height="16" viewBox="0 0 16 16" fill="none" xmlns="http://www.w3.org/2000/svg" aria-hidden="true">
  <path d="M13.6562 0H2.34375C1.05156 0 0 1.05156 0 2.34375V13.6562C0 14.9488 1.05156 16 2.34375 16H13.6562C14.9488 16 16 14.9488 16 13.6562V2.34375C16 1.05156 14.9488 0 13.6562 0ZM15.0625 13.6562C15.0625 14.4316 14.4316 15.0625 13.6562 15.0625H2.34375C1.56844 15.0625 0.9375 14.4316 0.9375 13.6562V2.34375C0.9375 1.56844 1.56844 0.9375 2.34375 0.9375H13.6562C14.4316 0.9375 15.0625 1.56844 15.0625 2.34375V13.6562Z" fill="white"/>
  <path d="M0.9375 0C0.420625 0 0 0.420625 0 0.9375C0 1.45438 0.420625 1.875 0.9375 1.875C1.45438 1.875 1.875 1.45438 1.875 0.9375C1.875 0.420625 1.45438 0 0.9375 0Z" fill="white" transform="translate(11.9 2.1) scale(0.9375)"/>
  <path d="M4.21875 0C1.8925 0 0 1.8925 0 4.21875C0 6.545 1.8925 8.4375 4.21875 8.4375C6.545 8.4375 8.4375 6.545 8.4375 4.21875C8.4375 1.8925 6.545 0 4.21875 0ZM4.21875 7.5C2.40937 7.5 0.9375 6.02813 0.9375 4.21875C0.9375 2.40937 2.40937 0.9375 4.21875 0.9375C6.02813 0.9375 7.5 2.40937 7.5 4.21875C7.5 6.02813 6.02813 7.5 4.21875 7.5Z" fill="white" transform="translate(3.78 3.78) scale(0.5625)"/>
</svg>
