<svg preserveAspectRatio="none" width="100%" height="100%" overflow="visible" style="display: block;" viewBox="0 0 16 16" fill="none" xmlns="http://www.w3.org/2000/svg">
<g id="Group">
<path id="Vector" d="M13.6562 0H2.34375C1.05156 0 0 1.05156 0 2.34375V13.6562C0 14.9488 1.05156 16 2.34375 16H13.6562C14.9488 16 16 14.9488 16 13.6562V2.34375C16 1.05156 14.9488 0 13.6562 0ZM15.0625 13.6562C15.0625 14.4316 14.4316 15.0625 13.6562 15.0625H2.34375C1.56844 15.0625 0.9375 14.4316 0.9375 13.6562V2.34375C0.9375 1.56844 1.56844 0.9375 2.34375 0.9375H13.6562C14.4316 0.9375 15.0625 1.56844 15.0625 2.34375V13.6562Z" fill="var(--fill-0, white)"/>
</g>
</svg>
