<svg preserveAspectRatio="none" width="100%" height="100%" overflow="visible" style="display: block;" viewBox="0 0 15.9557 13" fill="none" xmlns="http://www.w3.org/2000/svg">
<path id="Vector" d="M15.9557 1.539C15.3623 1.8 14.7301 1.973 14.0709 2.057C14.749 1.651 15.2666 1.013 15.5099 0.244C14.8777 0.622 14.1796 0.889 13.4357 1.038C12.8353 0.397 11.9797 0 11.0463 0C9.23535 0 7.7774 1.474 7.7774 3.281C7.7774 3.541 7.79934 3.791 7.85319 4.029C5.13374 3.896 2.72742 2.589 1.11091 0.598C0.828698 1.089 0.663158 1.651 0.663158 2.256C0.663158 3.392 1.24654 4.399 2.11612 4.982C1.59058 4.972 1.07501 4.819 0.638227 4.578C0.638227 4.588 0.638227 4.601 0.638227 4.614C0.638227 6.208 1.77208 7.532 3.25895 7.837C2.99269 7.91 2.70249 7.945 2.40133 7.945C2.19191 7.945 1.9805 7.933 1.78205 7.889C2.20587 9.188 3.40853 10.143 4.83856 10.174C3.72565 11.047 2.31258 11.573 0.782826 11.573C0.514571 11.573 0.257285 11.561 0 11.528C1.44898 12.465 3.16621 13 5.01806 13C11.0373 13 14.3282 8 14.3282 3.666C14.3282 3.521 14.3232 3.381 14.3162 3.242C14.9654 2.78 15.5109 2.203 15.9557 1.539Z" fill="var(--fill-0, #080809)"/>
</svg>
