<svg width="168" height="154" viewBox="0 0 168 154" fill="none" xmlns="http://www.w3.org/2000/svg">
<g clip-path="url(#clip0_13_1953)">
<path d="M96.2683 86.9561C94.91 87.2607 93.5869 87.8247 92.3812 88.6123C89.2402 90.6144 87.4124 93.4712 88.2991 94.9927C89.1858 96.5142 92.4509 96.1238 95.592 94.1217C96.8139 93.3619 97.8994 92.3909 98.7817 91.2688C99.1912 90.7267 99.2648 90.0513 98.9696 89.5466L97.8177 87.5701C97.5247 87.0638 96.9166 86.8232 96.2683 86.9561Z" fill="#D5D6DB"/>
<path d="M88.381 59.963C87.396 60.1841 86.4365 60.5932 85.5622 61.1644C83.2852 62.6157 81.9591 64.6872 82.6015 65.7895C83.244 66.8918 85.6124 66.6085 87.8892 65.1573C88.7752 64.606 89.5622 63.9016 90.2022 63.0879C90.4987 62.695 90.5519 62.2057 90.338 61.8398L89.5039 60.4086C89.2917 60.0416 88.8511 59.8667 88.381 59.963Z" fill="#D5D6DB"/>
<path d="M75.5671 61.0975C75.3479 61.0731 75.114 61.1316 74.9113 61.2612L69.5626 64.6707C69.1152 64.955 68.9361 65.5023 69.163 65.8933C69.2149 65.9829 69.2859 66.0594 69.3721 66.1184L82.5523 75.1966L100.387 63.8277L75.5671 61.0975Z" fill="#029BC5"/>
<path d="M131.943 59.8014L83.41 90.3577L54.6975 101.789L40.055 104.703L38.4446 101.968L119.342 52.0139C121.752 50.5188 124.438 49.6007 127.127 49.3527C128.304 49.2504 129.467 49.2892 130.588 49.4675C131.582 49.6177 132.525 49.908 133.388 50.3296C134.352 50.8072 136.187 50.8617 136.781 51.8139C136.783 51.8123 138.184 56.1843 131.943 59.8014V59.8014Z" fill="#E1E6E9"/>
<path d="M84.0562 86.3226L63.0567 119.789C62.7945 120.259 62.95 120.785 63.4039 120.964C63.6824 121.074 64.0233 121.031 64.3097 120.849L69.654 117.458C70.6819 116.805 71.5921 115.977 72.3284 115.023L113.05 67.1552L84.0562 86.3226Z" fill="#029BC5"/>
<path d="M31.0758 85.204C30.7256 85.0844 30.3088 85.1467 29.957 85.3708L25.539 88.1855C24.937 88.5687 24.697 89.3051 25.0028 89.8306C25.061 89.9305 25.1367 90.0184 25.2275 90.0908L37.6029 99.9973L50.6174 91.8655L31.0758 85.204Z" fill="#029BC5"/>
<path d="M41.7531 101.787L35.0906 111.115C34.9929 111.249 35.0158 111.418 35.1418 111.491C35.2326 111.544 35.3566 111.534 35.4574 111.467L39.5858 108.85C39.6179 108.83 39.6469 108.804 39.6709 108.775L49.4058 96.941L41.7531 101.787Z" fill="#029BC5"/>
<path d="M129.79 49.8716C128.636 49.6867 127.438 49.6475 126.225 49.7545C125.044 51.4056 124.289 53.2602 124.035 55.1332C124.017 55.5094 124.32 55.7801 124.713 55.7378C124.835 55.7245 124.957 55.6816 125.066 55.6128L132.674 50.7669C131.785 50.3288 130.814 50.0273 129.79 49.8716Z" fill="#029BC5"/>
<path d="M113.211 58.782L118.179 55.6432L122.804 63.5105L117.836 66.6492L113.211 58.782Z" fill="#D5D6DB"/>
<path d="M110.085 61.8928C109.487 62.2721 109.247 63.001 109.551 63.5206L110.043 64.3623C110.367 64.8686 111.106 64.9574 111.695 64.5605C112.255 64.1825 112.48 63.4958 112.21 62.9889L111.718 62.1471C111.415 61.628 110.684 61.514 110.085 61.8928V61.8928Z" fill="#3A556A"/>
<path d="M105.621 64.6652C105.022 65.0446 104.783 65.7735 105.087 66.293L105.579 67.1348C105.903 67.6411 106.642 67.7298 107.23 67.3329C107.79 66.9549 108.016 66.2682 107.746 65.7613L107.254 64.9196C106.95 64.4006 106.219 64.2866 105.621 64.6652V64.6652Z" fill="#3A556A"/>
<path d="M101.155 67.4387C100.557 67.8185 100.319 68.5465 100.622 69.0656L101.114 69.9073C101.438 70.4136 102.177 70.5023 102.766 70.1054C103.326 69.7275 103.551 69.0408 103.281 68.5339L102.789 67.6922C102.485 67.1726 101.754 67.0591 101.155 67.4387V67.4387Z" fill="#3A556A"/>
<path d="M96.6906 70.211C96.0927 70.5908 95.8542 71.3188 96.1577 71.8379L96.6499 72.6797C96.9737 73.186 97.713 73.2748 98.3014 72.8778C98.8613 72.4999 99.0869 71.8131 98.8171 71.3062L98.3249 70.4645C98.0209 69.9451 97.2893 69.8316 96.6906 70.211V70.211Z" fill="#3A556A"/>
<path d="M92.2269 72.9837C91.6286 73.3637 91.3899 74.092 91.6937 74.6113L92.1862 75.4534C92.4898 75.9726 93.221 76.086 93.8195 75.7068C94.418 75.3276 94.657 74.5994 94.3534 74.0802L93.8609 73.2381C93.5581 72.7185 92.8271 72.6043 92.2282 72.9829C92.2277 72.9832 92.2274 72.9834 92.2269 72.9837Z" fill="#3A556A"/>
<path d="M87.7623 75.7562C87.164 76.1362 86.9253 76.8645 87.2291 77.3838L87.7216 78.2259C88.0252 78.745 88.7564 78.8585 89.3549 78.4793C89.9534 78.1 90.1924 77.3718 89.8888 76.8527L89.3963 76.0106C89.0935 75.491 88.3625 75.3768 87.7636 75.7554C87.7631 75.7557 87.7626 75.756 87.7623 75.7562Z" fill="#3A556A"/>
<path d="M83.2977 78.5286C82.6994 78.9086 82.4607 79.6369 82.7645 80.1562L83.2569 80.9983C83.5613 81.5169 84.2929 81.6292 84.8908 81.2495C85.4876 80.8705 85.7261 80.1438 85.4239 79.6253L84.9314 78.7832C84.6279 78.2637 83.8967 78.1497 83.2977 78.5286Z" fill="#3A556A"/>
<path d="M78.8331 81.3011C78.2348 81.6812 77.9961 82.4094 78.2999 82.9288L78.7923 83.7709C79.0967 84.2895 79.8283 84.4018 80.4262 84.0221C81.023 83.6431 81.2615 82.9163 80.9593 82.3978L80.4668 81.5557C80.1633 81.0362 79.4321 80.9222 78.8331 81.3011Z" fill="#3A556A"/>
<path d="M74.369 84.0736C73.7707 84.4536 73.532 85.1818 73.8358 85.7012L74.3282 86.5432C74.6326 87.0619 75.3642 87.1742 75.962 86.7945C76.5589 86.4154 76.7974 85.6887 76.4952 85.1702L76.0027 84.3282C75.699 83.8088 74.9677 83.6948 74.369 84.0736Z" fill="#3A556A"/>
<path d="M69.9032 86.8468C69.3047 87.226 69.0657 87.9542 69.3693 88.4734L69.3699 88.4744L69.8624 89.3165C70.1668 89.8352 70.8984 89.9475 71.4962 89.5678C72.093 89.1887 72.3316 88.462 72.0294 87.9435L71.5369 87.1014C71.2334 86.5819 70.5022 86.4679 69.9032 86.8468Z" fill="#3A556A"/>
<path d="M65.4398 89.6185C64.8414 89.9977 64.6023 90.7259 64.9059 91.245L64.9066 91.2461L65.3991 92.0882C65.7034 92.6068 66.4351 92.7191 67.0329 92.3394C67.6297 91.9603 67.8682 91.2336 67.566 90.7151L67.0735 89.8731C66.7698 89.3537 66.0385 89.2397 65.4398 89.6185Z" fill="#3A556A"/>
</g>
<defs>
<clipPath id="clip0_13_1953">
<rect width="137.392" height="95.4044" fill="white" transform="translate(0 72.4824) rotate(-31.8406)"/>
</clipPath>
</defs>
</svg>
