<svg preserveAspectRatio="none" width="100%" height="100%" overflow="visible" style="display: block;" viewBox="0 0 128.114 69.6388" fill="none" xmlns="http://www.w3.org/2000/svg">
<g id="Group">
<path id="Vector" d="M72.7388 52.2844C71.2554 51.504 69.7034 50.9516 68.1792 50.6611C64.2286 49.8654 61.2511 50.7176 61.5292 52.5643C61.8073 54.411 65.2357 56.5525 69.1864 57.3483C70.7156 57.6725 72.1928 57.7306 73.5271 57.519C74.1549 57.4042 74.4996 56.9343 74.4063 56.3209L74.045 53.9219C73.9544 53.3088 73.4417 52.6665 72.7388 52.2844Z" fill="var(--fill-0, #D5D6DB)"/>
<path id="Vector_2" d="M75.6643 25.3946C74.5886 24.8289 73.4631 24.4284 72.3578 24.2178C69.4938 23.6409 67.3341 24.2582 67.5356 25.5962C67.7371 26.9342 70.2241 28.4875 73.0877 29.0643C74.1966 29.2992 75.2679 29.3409 76.2355 29.1876C76.6903 29.1041 76.9399 28.7636 76.8724 28.319L76.6107 26.5819C76.5453 26.1376 76.174 25.6718 75.6643 25.3946Z" fill="var(--fill-0, #D5D6DB)"/>
<path id="Vector_3" d="M62.3689 16.6811C62.159 16.4979 61.9012 16.3683 61.646 16.3172L54.9186 14.9625C54.3562 14.8485 53.9572 15.1398 54.0277 15.6137C54.0437 15.7222 54.0842 15.8348 54.1469 15.9452L63.7121 32.872L86.1446 37.3893L62.3689 16.6811Z" fill="var(--fill-0, #029BC5)"/>
<path id="Vector_4" d="M119.38 57.889L58.4895 45.3001L25.1325 32.6857L9.29065 23.987L8.77431 20.6547L109.877 42.3991C112.893 43.0421 115.952 44.3394 118.746 46.16C119.967 46.9622 121.116 47.8629 122.168 48.841C123.104 49.7021 123.932 50.6337 124.628 51.6081C125.402 52.7011 127.219 54.1171 127.432 55.3022C127.435 55.3025 127.085 59.7503 119.38 57.889V57.889Z" fill="var(--fill-0, #E1E6E9)"/>
<path id="Vector_5" d="M60.7557 42.6472L26.2875 52.9383C25.8361 53.1073 25.7809 53.6329 26.1638 54.1119C26.3988 54.4059 26.7579 54.6273 27.1179 54.7003L33.8335 56.0661C35.1253 56.3286 36.3698 56.366 37.4901 56.1761L97.4985 49.4583L60.7557 42.6472Z" fill="var(--fill-0, #029BC5)"/>
<path id="Vector_6" d="M8.11568 2.10491C7.81272 1.74972 7.3701 1.48599 6.92758 1.39677L1.37139 0.276495C0.614432 0.12362 0.0785317 0.516418 0.174141 1.15388C0.192446 1.27516 0.233023 1.40018 0.294888 1.5244L8.72148 18.4924L25.0248 21.9165L8.11568 2.10491Z" fill="var(--fill-0, #029BC5)"/>
<path id="Vector_7" d="M12.1624 22.9912L1.7438 25.2539C1.59213 25.285 1.54763 25.433 1.64442 25.5842C1.71425 25.6933 1.84235 25.7787 1.97046 25.8017L7.15702 26.8591C7.19731 26.8673 7.23663 26.8692 7.27235 26.8646L21.7747 24.9548L12.1624 22.9912Z" fill="var(--fill-0, #029BC5)"/>
<path id="Vector_8" d="M121.206 48.5577C120.124 47.5495 118.939 46.6222 117.681 45.7972C115.835 46.1963 114.335 47.0726 113.329 48.3387C113.16 48.6173 113.355 49.0548 113.766 49.3161C113.893 49.3973 114.032 49.4548 114.169 49.4832L123.737 51.4135C123.022 50.4068 122.17 49.4453 121.206 48.5577Z" fill="var(--fill-0, #029BC5)"/>
<path id="Vector_9" d="M101.018 43.0693L107.256 44.3494L108.735 53.929L102.498 52.6489L101.018 43.0693Z" fill="var(--fill-0, #D5D6DB)"/>
<g id="Group_2">
<path id="Vector_10" d="M96.6388 43.1473C95.8867 42.9939 95.3544 43.3813 95.4504 44.0127L95.606 45.0356C95.7273 45.6716 96.4325 46.2942 97.1813 46.4263C97.894 46.5517 98.3955 46.1868 98.3286 45.5908L98.1731 44.5678C98.0772 43.937 97.3906 43.3011 96.6388 43.1473V43.1473Z" fill="var(--fill-0, #3A556A)"/>
<path id="Vector_11" d="M91.053 41.9595C90.3009 41.8061 89.7687 42.1935 89.8646 42.8248L90.0202 43.8478C90.1415 44.4838 90.8467 45.1064 91.5955 45.2385C92.3082 45.3639 92.8097 44.999 92.7428 44.403L92.5873 43.38C92.4911 42.7491 91.8045 42.1132 91.053 41.9595V41.9595Z" fill="var(--fill-0, #3A556A)"/>
<path id="Vector_12" d="M85.4654 40.7713C84.7138 40.6188 84.1827 41.0061 84.2787 41.6369L84.4342 42.6598C84.5555 43.2959 85.2607 43.9185 86.0095 44.0505C86.7222 44.176 87.2237 43.8111 87.1568 43.2151L87.0013 42.1922C86.9053 41.5608 86.2177 40.9247 85.4654 40.7713V40.7713Z" fill="var(--fill-0, #3A556A)"/>
<path id="Vector_13" d="M79.8797 39.5835C79.1281 39.431 78.5971 39.8183 78.693 40.4492L78.8485 41.4721C78.9699 42.1081 79.6751 42.7308 80.4239 42.8628C81.1366 42.9882 81.6381 42.6233 81.5712 42.0273L81.4157 41.0044C81.3193 40.3729 80.6318 39.7368 79.8797 39.5835V39.5835Z" fill="var(--fill-0, #3A556A)"/>
<path id="Vector_14" d="M74.2944 38.3962C73.5424 38.2436 73.011 38.6311 73.1071 39.2622L73.2627 40.2856C73.3587 40.9165 74.046 41.5523 74.7978 41.7057C75.5496 41.859 76.0813 41.4719 75.9853 40.841L75.8296 39.8176C75.7346 39.1869 75.0479 38.5507 74.296 38.3966C74.2953 38.3964 74.295 38.3964 74.2944 38.3962Z" fill="var(--fill-0, #3A556A)"/>
<path id="Vector_15" d="M68.7086 37.2084C67.9566 37.0558 67.4253 37.4433 67.5213 38.0744L67.6769 39.0978C67.7729 39.7287 68.4602 40.3645 69.212 40.5179C69.9638 40.6712 70.4955 40.2841 70.3995 39.6532L70.2438 38.6298C70.1488 37.9991 69.4621 37.3629 68.7102 37.2088C68.7095 37.2086 68.7089 37.2085 68.7086 37.2084Z" fill="var(--fill-0, #3A556A)"/>
<path id="Vector_16" d="M63.1226 36.0205C62.3706 35.8679 61.8393 36.2553 61.9353 36.8865L62.0909 37.9099C62.1879 38.5409 62.8759 39.1761 63.6273 39.3286C64.3774 39.4808 64.908 39.0945 64.8132 38.4652L64.6575 37.4418C64.5618 36.8107 63.8748 36.1745 63.1226 36.0205Z" fill="var(--fill-0, #3A556A)"/>
<path id="Vector_17" d="M57.5366 34.8326C56.7846 34.68 56.2533 35.0674 56.3493 35.6986L56.5049 36.722C56.6019 37.3531 57.2899 37.9882 58.0413 38.1407C58.7914 38.2929 59.322 37.9066 59.2272 37.2773L59.0715 36.2539C58.9758 35.6228 58.2888 34.9866 57.5366 34.8326Z" fill="var(--fill-0, #3A556A)"/>
<path id="Vector_18" d="M51.9509 33.6449C51.1989 33.4922 50.6676 33.8797 50.7636 34.5108L50.9193 35.5342C51.0162 36.1653 51.7043 36.8004 52.4557 36.9529C53.2058 37.1052 53.7363 36.7189 53.6415 36.0895L53.4858 35.0661C53.3898 34.435 52.7028 33.7988 51.9509 33.6449Z" fill="var(--fill-0, #3A556A)"/>
<path id="Vector_19" d="M46.3634 32.4566C45.6116 32.3032 45.08 32.6904 45.1759 33.3213L45.1761 33.3226L45.3318 34.346C45.4287 34.9771 46.1168 35.6122 46.8681 35.7647C47.6182 35.9169 48.1488 35.5306 48.054 34.9013L47.8983 33.8779C47.8027 33.2468 47.1156 32.6105 46.3634 32.4566Z" fill="var(--fill-0, #3A556A)"/>
<path id="Vector_20" d="M40.7792 31.2691C40.0274 31.1158 39.4957 31.5029 39.5917 32.1337L39.5919 32.1351L39.7476 33.1585C39.8445 33.7895 40.5326 34.4247 41.284 34.5772C42.0341 34.7294 42.5646 34.3432 42.4698 33.7138L42.3141 32.6904C42.2181 32.0593 41.5311 31.423 40.7792 31.2691Z" fill="var(--fill-0, #3A556A)"/>
</g>
</g>
</svg>
