<svg preserveAspectRatio="none" width="100%" height="100%" overflow="visible" style="display: block;" viewBox="0 0 50 50" fill="none" xmlns="http://www.w3.org/2000/svg">
<g id="Group">
<path id="Vector" d="M50 27.8482V22.1518C50 21.0351 49.0948 20.1299 47.9781 20.1299H45.7994C44.9283 20.1299 44.1553 19.5717 43.8815 18.7448C43.5765 17.8235 43.2058 16.9322 42.7753 16.0763C42.3831 15.2967 42.5332 14.3542 43.1502 13.7371L44.6917 12.1957C45.4813 11.406 45.4813 10.1259 44.6917 9.33622L40.6637 5.30825C39.8741 4.51861 38.5939 4.51861 37.8042 5.30825L36.2628 6.8497C35.6457 7.4668 34.7032 7.6168 33.9237 7.22465C33.0677 6.79406 32.1764 6.42344 31.2551 6.11841C30.4282 5.84457 29.87 5.07163 29.87 4.2005V2.02193C29.87 0.905231 28.9648 0 27.8481 0H22.1517C21.035 0 20.1298 0.905231 20.1298 2.02193V4.2006C20.1298 5.07173 19.5716 5.84467 18.7447 6.11851C17.8235 6.42354 16.9321 6.79416 16.0762 7.22475C15.2966 7.6169 14.3541 7.4668 13.737 6.8498L12.1956 5.30835C11.4059 4.51871 10.1258 4.51871 9.33613 5.30835L5.30836 9.33632C4.51872 10.126 4.51872 11.4061 5.30836 12.1958L6.84981 13.7372C7.46681 14.3543 7.61691 15.2968 7.22476 16.0764C6.79418 16.9323 6.42355 17.8236 6.11852 18.7449C5.92496 19.3293 5.48221 19.7794 4.9317 19.9932C4.70323 20.0819 4.55675 20.2305 4.30122 20.2305H2.12255C1.00585 20.2305 0.100616 21.1357 0.100616 22.2524V27.7476C0.100616 28.8643 1.00585 29.7695 2.12255 29.7695H4.30122C5.17235 29.7695 5.94528 30.4283 6.21913 31.2552C6.52416 32.1765 6.89478 33.0677 7.32536 33.9237C7.71752 34.7033 7.56742 35.6458 6.95041 36.2629L5.50957 37.8043C4.71993 38.594 4.71993 39.8741 5.50957 40.6638L9.33633 44.4905C10.126 45.2802 11.4061 45.2802 12.1958 44.4905L13.7372 42.9491C14.3542 42.332 15.2968 42.182 16.0764 42.5741C16.9323 43.0047 18.0249 43.476 18.9461 43.781C19.7731 44.0548 20.3312 44.8278 20.3312 45.6989V47.8776C20.3312 48.9943 21.2364 49.8995 22.3531 49.8995H27.7477C28.8644 49.8995 29.7696 48.9943 29.7696 47.8776V45.6989C29.7696 45.4434 29.9182 45.2969 30.007 45.0684C30.2207 44.5179 30.6709 44.0752 31.2552 43.8816C32.1765 43.5766 33.0678 43.2059 33.9238 42.7754C34.7033 42.3832 35.6458 42.5333 36.2629 43.1503L37.8043 44.6917C38.594 45.4814 39.8742 45.4814 40.6638 44.6917L44.6918 40.6638C45.4814 39.8741 45.4814 38.594 44.6918 37.8043L43.1503 36.2629C42.5333 35.6458 42.3832 34.7033 42.7754 33.9237C43.2059 33.0678 43.5766 32.1765 43.8816 31.2552C44.1554 30.4283 44.9284 29.8701 45.7995 29.8701H47.9782C49.0948 29.8701 50 28.9649 50 27.8482V27.8482Z" fill="var(--fill-0, #B6C4CF)"/>
<path id="Vector_2" d="M30.0071 45.0684C29.9185 45.2967 29.8703 45.5442 29.8703 45.7998V47.9778C29.8703 49.0945 28.9648 50 27.8481 50H22.1519C21.0352 50 20.1298 49.0945 20.1298 47.9778V45.7998C20.1298 44.9285 19.5715 44.1549 18.7445 43.8812C17.824 43.5764 16.9326 43.2062 16.0765 42.7756C15.2968 42.3833 14.3542 42.5332 13.7375 43.1499L12.1962 44.6911C11.4065 45.4808 10.1258 45.4808 9.33605 44.6911L5.30788 40.6639C4.51914 39.8742 4.51914 38.5935 5.30788 37.8038L6.85013 36.2625C7.46683 35.6458 7.61673 34.7032 7.22438 33.9235C6.79379 33.0674 6.42357 32.176 6.11874 31.2555C5.8451 30.4285 5.07146 29.8702 4.20023 29.8702H2.02216C0.905463 29.8702 3.016e-05 28.9648 3.016e-05 27.8481V22.1519C3.016e-05 21.0352 0.905463 20.1297 2.02216 20.1297H4.20023C4.45576 20.1297 4.70325 20.0815 4.93162 19.9929C4.92961 20.1187 4.9286 20.2454 4.9286 20.3722C4.9286 34.013 15.987 45.0714 29.6278 45.0714C29.7546 45.0714 29.8813 45.0704 30.0071 45.0684V45.0684Z" fill="var(--fill-0, #9FACBA)"/>
<path id="Vector_3" d="M25 41.5996C34.1677 41.5996 41.5996 34.1677 41.5996 25C41.5996 15.8323 34.1677 8.40039 25 8.40039C15.8323 8.40039 8.40042 15.8323 8.40042 25C8.40042 34.1677 15.8323 41.5996 25 41.5996Z" fill="var(--fill-0, #9FACBA)"/>
<path id="Vector_4" d="M25 38.0784C32.223 38.0784 38.0785 32.223 38.0785 25C38.0785 17.7769 32.223 11.9215 25 11.9215C17.777 11.9215 11.9215 17.7769 11.9215 25C11.9215 32.223 17.777 38.0784 25 38.0784Z" fill="var(--fill-0, #F8F7F7)"/>
</g>
</svg>
