<svg width="168" height="154" viewBox="0 0 168 154" fill="none" xmlns="http://www.w3.org/2000/svg">
<g id="Services">
<g id="Category Active">
<g id="Frame 51" clip-path="url(#clip0_45_102)">
<path id="Rectangle 158" d="M47.6838 73.0148C47.6838 82.9559 55.7427 91.0148 65.6838 91.0148L92.6838 91.0148C95.4452 91.0148 97.6838 88.7762 97.6838 86.0148L97.6838 52.0148C97.6838 46.4919 93.2066 42.0148 87.6838 42.0148L52.6838 42.0148C49.9224 42.0148 47.6838 44.2533 47.6838 47.0148L47.6838 73.0148Z" fill="#FFF1DA"/>
<g id="plane" clip-path="url(#clip1_45_102)">
<g id="Group">
<path id="Vector" d="M96.2684 86.9561C94.91 87.2608 93.5869 87.8247 92.3813 88.6124C89.2402 90.6144 87.4125 93.4712 88.2992 94.9927C89.1859 96.5142 92.451 96.1238 95.592 94.1218C96.8139 93.3619 97.8994 92.3909 98.7818 91.2689C99.1912 90.7267 99.2648 90.0514 98.9697 89.5467L97.8178 87.5701C97.5247 87.0638 96.9167 86.8232 96.2684 86.9561Z" fill="#D5D6DB"/>
<path id="Vector_2" d="M88.3812 59.9631C87.3962 60.1841 86.4367 60.5932 85.5624 61.1645C83.2854 62.6158 81.9593 64.6872 82.6017 65.7895C83.2441 66.8919 85.6126 66.6085 87.8894 65.1574C88.7754 64.6061 89.5624 63.9017 90.2023 63.088C90.4989 62.695 90.5521 62.2057 90.3382 61.8398L89.5041 60.4087C89.2919 60.0416 88.8513 59.8668 88.3812 59.9631Z" fill="#D5D6DB"/>
<path id="Vector_3" d="M75.5671 61.0975C75.3479 61.0732 75.114 61.1317 74.9113 61.2612L69.5626 64.6707C69.1152 64.955 68.9361 65.5023 69.163 65.8933C69.2149 65.9829 69.2859 66.0595 69.3721 66.1184L82.5523 75.1967L100.387 63.8277L75.5671 61.0975Z" fill="#029BC5"/>
<path id="Vector_4" d="M131.943 59.8014L83.41 90.3578L54.6976 101.789L40.055 104.703L38.4446 101.968L119.342 52.014C121.753 50.5189 124.438 49.6007 127.127 49.3528C128.304 49.2505 129.467 49.2892 130.588 49.4675C131.582 49.6178 132.525 49.908 133.388 50.3296C134.352 50.8073 136.187 50.8617 136.781 51.8139C136.783 51.8124 138.184 56.1843 131.943 59.8014Z" fill="#E1E6E9"/>
<path id="Vector_5" d="M84.0562 86.3227L63.0568 119.789C62.7945 120.259 62.9501 120.785 63.4039 120.964C63.6825 121.074 64.0234 121.031 64.3098 120.849L69.6541 117.458C70.682 116.805 71.5922 115.977 72.3284 115.023L113.05 67.1553L84.0562 86.3227Z" fill="#029BC5"/>
<path id="Vector_6" d="M31.0758 85.2041C30.7256 85.0845 30.3088 85.1467 29.957 85.3709L25.539 88.1855C24.937 88.5687 24.697 89.3052 25.0028 89.8307C25.061 89.9306 25.1367 90.0185 25.2275 90.0909L37.6029 99.9973L50.6174 91.8655L31.0758 85.2041Z" fill="#029BC5"/>
<path id="Vector_7" d="M41.7532 101.787L35.0906 111.115C34.9929 111.249 35.0159 111.418 35.1418 111.491C35.2326 111.544 35.3567 111.534 35.4574 111.467L39.5859 108.85C39.6179 108.83 39.647 108.804 39.671 108.775L49.4059 96.941L41.7532 101.787Z" fill="#029BC5"/>
<path id="Vector_8" d="M129.79 49.8717C128.636 49.6867 127.438 49.6476 126.225 49.7546C125.044 51.4057 124.289 53.2602 124.035 55.1333C124.017 55.5095 124.32 55.7802 124.713 55.7379C124.835 55.7246 124.957 55.6816 125.066 55.6128L132.674 50.767C131.785 50.3288 130.814 50.0274 129.79 49.8717Z" fill="#029BC5"/>
<path id="Vector_9" d="M113.211 58.782L118.179 55.6432L122.804 63.5105L117.836 66.6492L113.211 58.782Z" fill="#D5D6DB"/>
<g id="Group_2">
<path id="Vector_10" d="M110.085 61.8928C109.487 62.2722 109.247 63.001 109.551 63.5206L110.043 64.3623C110.367 64.8687 111.106 64.9574 111.695 64.5605C112.255 64.1825 112.48 63.4958 112.211 62.9889L111.718 62.1472C111.415 61.628 110.684 61.5141 110.085 61.8928Z" fill="#3A556A"/>
<path id="Vector_11" d="M105.621 64.6653C105.022 65.0447 104.783 65.7735 105.087 66.2931L105.579 67.1348C105.903 67.6411 106.642 67.7299 107.23 67.333C107.79 66.955 108.016 66.2683 107.746 65.7614L107.254 64.9196C106.95 64.4007 106.219 64.2867 105.621 64.6653Z" fill="#3A556A"/>
<path id="Vector_12" d="M101.155 67.4387C100.557 67.8186 100.319 68.5465 100.622 69.0656L101.114 69.9073C101.438 70.4136 102.177 70.5024 102.766 70.1055C103.326 69.7275 103.551 69.0408 103.282 68.5339L102.789 67.6922C102.486 67.1727 101.754 67.0592 101.155 67.4387Z" fill="#3A556A"/>
<path id="Vector_13" d="M96.6908 70.211C96.0928 70.5909 95.8543 71.3189 96.1579 71.838L96.6501 72.6797C96.9739 73.186 97.7132 73.2748 98.3015 72.8779C98.8615 72.4999 99.087 71.8132 98.8173 71.3063L98.3251 70.4646C98.0211 69.9451 97.2895 69.8317 96.6908 70.211Z" fill="#3A556A"/>
<path id="Vector_14" d="M92.2269 72.9837C91.6286 73.3637 91.3899 74.092 91.6937 74.6113L92.1862 75.4534C92.4898 75.9726 93.221 76.086 93.8195 75.7068C94.418 75.3276 94.657 74.5993 94.3534 74.0802L93.8609 73.2381C93.5581 72.7185 92.8271 72.6043 92.2282 72.9829C92.2277 72.9832 92.2274 72.9834 92.2269 72.9837Z" fill="#3A556A"/>
<path id="Vector_15" d="M87.7625 75.7561C87.1642 76.1362 86.9255 76.8645 87.2293 77.3838L87.7217 78.2259C88.0254 78.745 88.7566 78.8584 89.3551 78.4792C89.9536 78.1 90.1926 77.3718 89.889 76.8527L89.3965 76.0106C89.0937 75.491 88.3626 75.3768 87.7638 75.7553C87.7633 75.7557 87.7628 75.756 87.7625 75.7561Z" fill="#3A556A"/>
<path id="Vector_16" d="M83.2979 78.5287C82.6996 78.9088 82.4609 79.637 82.7646 80.1564L83.2571 80.9984C83.5615 81.5171 84.2931 81.6293 84.8909 81.2497C85.4877 80.8706 85.7263 80.1439 85.4241 79.6254L84.9316 78.7833C84.6281 78.2639 83.8969 78.1498 83.2979 78.5287Z" fill="#3A556A"/>
<path id="Vector_17" d="M78.8333 81.3012C78.235 81.6812 77.9963 82.4095 78.3 82.9288L78.7925 83.7709C79.0969 84.2896 79.8285 84.4019 80.4263 84.0222C81.0231 83.6431 81.2617 82.9164 80.9595 82.3979L80.467 81.5558C80.1635 81.0363 79.4323 80.9223 78.8333 81.3012Z" fill="#3A556A"/>
<path id="Vector_18" d="M74.369 84.0737C73.7707 84.4537 73.532 85.1819 73.8358 85.7013L74.3282 86.5434C74.6326 87.062 75.3642 87.1743 75.962 86.7946C76.5589 86.4155 76.7974 85.6888 76.4952 85.1703L76.0027 84.3283C75.699 83.8089 74.9677 83.6949 74.369 84.0737Z" fill="#3A556A"/>
<path id="Vector_19" d="M69.9032 86.8468C69.3047 87.226 69.0657 87.9543 69.3693 88.4734L69.3699 88.4745L69.8624 89.3166C70.1668 89.8352 70.8984 89.9475 71.4962 89.5678C72.093 89.1888 72.3316 88.462 72.0294 87.9435L71.5369 87.1014C71.2334 86.5819 70.5022 86.4679 69.9032 86.8468Z" fill="#3A556A"/>
<path id="Vector_20" d="M65.44 89.6186C64.8415 89.9978 64.6025 90.726 64.9061 91.2451L64.9067 91.2462L65.3992 92.0883C65.7036 92.6069 66.4352 92.7192 67.0331 92.3395C67.6299 91.9604 67.8684 91.2338 67.5662 90.7153L67.0737 89.8732C66.77 89.3539 66.0387 89.2398 65.44 89.6186Z" fill="#3A556A"/>
</g>
</g>
</g>
</g>
</g>
</g>
<defs>
<clipPath id="clip0_45_102">
<rect width="167.049" height="153.53" fill="white"/>
</clipPath>
<clipPath id="clip1_45_102">
<rect width="137.392" height="95.4045" fill="white" transform="translate(9.15527e-05 72.4824) rotate(-31.8406)"/>
</clipPath>
</defs>
</svg>
